# xmcd
#
# Track frame offsets: 
#        150
#        26213
#        46715
#        65347
#        87811
#        107526
#        129833
#        155744
#        177444
#        192646
#        217951
#        240894
#        265247
#        290587
#        315545
#        333997
#
# Disc length: 4709 seconds
#
# Revision: 0
# Processed by: cddbd v1.5.1PL0 Copyright (c) Steve Scherf et al.
# Submitted via: ExactAudioCopy v0.95a5
#
DISCID=dc126310
DTITLE=Isley Brothers - Isley Brothers: The Ultimate Collection [CD
DTITLE=1)
DYEAR=2002
DGENRE=R&B/Soul
TTITLE0=Contagious
TTITLE1=Let's Lay Together
TTITLE2=Floatin' On Your Love
TTITLE3=Smooth Sailin' Tonight
TTITLE4=Caravan Of Love
TTITLE5=Between The Sheets
TTITLE6=Don't Say Goodnight
TTITLE7=Groove With You
TTITLE8=You're The Key To My Heart
TTITLE9=You're Beside Me
TTITLE10=Footsteps In The Dark
TTITLE11=(At Your Best) You Are Love
TTITLE12=For The Love Of You
TTITLE13=Hello, It's Me
TTITLE14=Brown Eyed Girl
TTITLE15=The Highways Of My Life
EXTD=
EXTT0=
EXTT1=
EXTT2=
EXTT3=
EXTT4=
EXTT5=
EXTT6=
EXTT7=
EXTT8=
EXTT9=
EXTT10=
EXTT11=
EXTT12=
EXTT13=
EXTT14=
EXTT15=
PLAYORDER=
